  0
SECTION
  2
HEADER
  9
$ACADVER
  1
AC1006
  9
$EXTMIN
 10
0.000000
 20
0.000000
 30
0.000000
  9
$EXTMAX
 10
738.000000
 20
208.000000
 30
0.000000
  0
ENDSEC
  0
SECTION
  2
ENTITIES
  0
POLYLINE
  8
0
 66
1
 70
1
  0
VERTEX
  8
0
 10
611.029837
 20
193.535951
 42
0.153207
  0
VERTEX
  8
0
 10
610.452858
 20
192.126989
 42
0.021623
  0
VERTEX
  8
0
 10
610.321493
 20
188.954606
 42
0.014972
  0
VERTEX
  8
0
 10
610.479949
 20
183.972786
 42
0.003311
  0
VERTEX
  8
0
 10
611.063381
 20
175.451391
 42
0.005964
  0
VERTEX
  8
0
 10
612.036696
 20
164.280658
 42
0.049386
  0
VERTEX
  8
0
 10
613.034921
 20
159.293060
 42
0.140101
  0
VERTEX
  8
0
 10
614.579125
 20
156.908176
 42
0.181400
  0
VERTEX
  8
0
 10
617.000000
 20
156.000000
 42
0.119448
  0
VERTEX
  8
0
 10
619.229927
 20
156.540434
 42
0.144241
  0
VERTEX
  8
0
 10
620.782618
 20
158.022250
 42
0.108943
  0
VERTEX
  8
0
 10
621.556521
 20
160.478620
 42
0.050411
  0
VERTEX
  8
0
 10
621.514284
 20
163.843472
 42
-0.004031
  0
VERTEX
  8
0
 10
621.245486
 20
166.388472
 42
-0.000954
  0
VERTEX
  8
0
 10
620.839442
 20
170.638129
 42
-0.000982
  0
VERTEX
  8
0
 10
620.391665
 20
175.524332
 42
-0.000968
  0
VERTEX
  8
0
 10
619.960929
 20
180.435264
 42
0.007559
  0
VERTEX
  8
0
 10
619.489431
 20
185.103166
 42
0.010620
  0
VERTEX
  8
0
 10
618.917526
 20
189.250749
 42
0.007156
  0
VERTEX
  8
0
 10
618.320069
 20
192.678293
 42
0.127137
  0
VERTEX
  8
0
 10
617.846244
 20
193.685264
 42
0.139172
  0
VERTEX
  8
0
 10
616.442743
 20
194.648553
 42
0.086927
  0
VERTEX
  8
0
 10
614.458272
 20
194.951556
 42
0.085769
  0
VERTEX
  8
0
 10
612.463151
 20
194.561602
 42
0.129195
  0
SEQEND
  0
POLYLINE
  8
0
 66
1
 70
1
  0
VERTEX
  8
0
 10
654.805882
 20
192.250000
 42
0.125258
  0
VERTEX
  8
0
 10
652.956856
 20
188.525047
 42
0.005731
  0
VERTEX
  8
0
 10
650.111642
 20
174.494512
 42
0.004729
  0
VERTEX
  8
0
 10
647.521669
 20
160.192851
 42
0.166795
  0
VERTEX
  8
0
 10
648.056994
 20
156.893507
 42
0.166991
  0
VERTEX
  8
0
 10
649.665957
 20
155.399188
 42
0.116120
  0
VERTEX
  8
0
 10
652.123676
 20
154.935843
 42
0.116141
  0
VERTEX
  8
0
 10
654.529641
 20
155.617574
 42
0.167086
  0
VERTEX
  8
0
 10
655.997373
 20
157.250000
 42
0.050576
  0
VERTEX
  8
0
 10
657.172383
 20
161.046545
 42
0.003015
  0
VERTEX
  8
0
 10
659.477377
 20
172.837801
 42
0.003321
  0
VERTEX
  8
0
 10
661.616575
 20
184.568533
 42
0.043461
  0
VERTEX
  8
0
 10
662.000000
 20
188.971351
 42
0.122512
  0
VERTEX
  8
0
 10
661.310265
 20
191.744072
 42
0.165374
  0
VERTEX
  8
0
 10
659.442371
 20
193.503123
 42
0.180045
  0
VERTEX
  8
0
 10
657.017287
 20
193.676432
 42
0.144976
  0
SEQEND
  0
POLYLINE
  8
0
 66
1
 70
1
  0
VERTEX
  8
0
 10
321.000000
 20
121.000000
 42
0.000000
  0
VERTEX
  8
0
 10
321.000000
 20
53.000000
 42
0.000000
  0
VERTEX
  8
0
 10
329.481901
 20
53.000000
 42
0.000000
  0
VERTEX
  8
0
 10
337.963803
 20
53.000000
 42
0.000000
  0
VERTEX
  8
0
 10
338.231901
 20
76.435063
 42
0.000000
  0
VERTEX
  8
0
 10
338.500000
 20
99.870127
 42
0.000000
  0
VERTEX
  8
0
 10
362.983651
 20
76.435063
 42
0.000000
  0
VERTEX
  8
0
 10
387.467302
 20
53.000000
 42
0.000000
  0
VERTEX
  8
0
 10
397.733651
 20
53.000000
 42
0.002621
  0
VERTEX
  8
0
 10
401.670263
 20
53.020633
 42
0.004369
  0
VERTEX
  8
0
 10
404.984260
 20
53.084336
 42
0.000768
  0
VERTEX
  8
0
 10
407.886435
 20
53.169955
 42
0.405154
  0
VERTEX
  8
0
 10
408.000000
 20
53.287100
 42
0.202884
  0
VERTEX
  8
0
 10
407.915928
 20
53.485765
 42
0.000043
  0
VERTEX
  8
0
 10
400.215625
 20
60.953160
 42
0.000875
  0
VERTEX
  8
0
 10
391.660915
 20
69.218709
 42
0.000529
  0
VERTEX
  8
0
 10
381.500000
 20
78.981166
 42
-0.001078
  0
VERTEX
  8
0
 10
371.339634
 20
88.764583
 42
-0.001768
  0
VERTEX
  8
0
 10
362.784375
 20
97.096823
 42
-0.000175
  0
VERTEX
  8
0
 10
355.168409
 20
104.572149
 42
-0.201245
  0
VERTEX
  8
0
 10
355.000000
 20
104.973622
 42
-0.211762
  0
VERTEX
  8
0
 10
355.174615
 20
105.367425
 42
-0.000212
  0
VERTEX
  8
0
 10
362.488707
 20
111.987818
 42
-0.001984
  0
VERTEX
  8
0
 10
370.719054
 20
119.372061
 42
-0.001210
  0
VERTEX
  8
0
 10
380.493470
 20
128.029556
 42
0.000000
  0
VERTEX
  8
0
 10
405.986941
 20
150.500000
 42
0.000000
  0
VERTEX
  8
0
 10
395.932389
 20
150.785657
 42
0.000000
  0
VERTEX
  8
0
 10
385.877837
 20
151.071315
 42
0.000000
  0
VERTEX
  8
0
 10
361.938918
 20
129.987538
 42
0.000000
  0
VERTEX
  8
0
 10
338.000000
 20
108.903762
 42
0.000000
  0
VERTEX
  8
0
 10
338.000000
 20
148.951881
 42
0.000000
  0
VERTEX
  8
0
 10
338.000000
 20
189.000000
 42
0.000000
  0
VERTEX
  8
0
 10
329.500000
 20
189.000000
 42
0.000000
  0
VERTEX
  8
0
 10
321.000000
 20
189.000000
 42
0.000000
  0
SEQEND
  0
POLYLINE
  8
0
 66
1
 70
1
  0
VERTEX
  8
0
 10
520.000000
 20
165.000000
 42
0.000000
  0
VERTEX
  8
0
 10
520.000000
 20
151.000000
 42
0.000000
  0
VERTEX
  8
0
 10
514.000000
 20
151.000000
 42
0.000000
  0
VERTEX
  8
0
 10
508.000000
 20
151.000000
 42
0.000000
  0
VERTEX
  8
0
 10
508.000000
 20
145.000000
 42
0.000000
  0
VERTEX
  8
0
 10
508.000000
 20
139.000000
 42
0.000000
  0
VERTEX
  8
0
 10
513.918145
 20
139.000000
 42
0.000000
  0
VERTEX
  8
0
 10
519.836290
 20
139.000000
 42
0.000000
  0
VERTEX
  8
0
 10
520.236867
 20
105.750000
 42
0.003168
  0
VERTEX
  8
0
 10
520.672217
 20
82.069423
 42
0.029241
  0
VERTEX
  8
0
 10
521.524471
 20
71.847626
 42
0.070155
  0
VERTEX
  8
0
 10
523.309886
 20
65.678858
 42
0.081646
  0
VERTEX
  8
0
 10
526.676455
 20
60.593127
 42
0.067413
  0
VERTEX
  8
0
 10
530.955835
 20
57.071939
 42
0.072951
  0
VERTEX
  8
0
 10
535.907922
 20
54.929959
 42
0.047157
  0
VERTEX
  8
0
 10
542.887614
 20
53.743682
 42
0.012326
  0
VERTEX
  8
0
 10
554.250000
 20
53.181256
 42
0.000000
  0
VERTEX
  8
0
 10
570.000000
 20
52.790443
 42
0.000000
  0
VERTEX
  8
0
 10
570.000000
 20
59.276978
 42
0.000000
  0
VERTEX
  8
0
 10
570.000000
 20
65.763514
 42
0.000000
  0
VERTEX
  8
0
 10
557.157339
 20
66.163654
 42
-0.012571
  0
VERTEX
  8
0
 10
548.027472
 20
66.678104
 42
-0.062213
  0
VERTEX
  8
0
 10
542.998258
 20
67.727430
 42
-0.113072
  0
VERTEX
  8
0
 10
539.910881
 20
69.642255
 42
-0.098178
  0
VERTEX
  8
0
 10
537.773335
 20
72.802299
 42
-0.086446
  0
VERTEX
  8
0
 10
537.237770
 20
75.125844
 42
-0.004711
  0
VERTEX
  8
0
 10
536.901485
 20
82.651786
 42
-0.005964
  0
VERTEX
  8
0
 10
536.663711
 20
92.852751
 42
-0.002305
  0
VERTEX
  8
0
 10
536.567970
 20
107.000000
 42
0.000000
  0
VERTEX
  8
0
 10
536.500000
 20
138.500000
 42
0.000000
  0
VERTEX
  8
0
 10
553.250000
 20
138.774179
 42
0.000000
  0
VERTEX
  8
0
 10
570.000000
 20
139.048358
 42
0.000000
  0
VERTEX
  8
0
 10
570.000000
 20
145.000000
 42
0.000000
  0
VERTEX
  8
0
 10
570.000000
 20
150.951642
 42
0.000000
  0
VERTEX
  8
0
 10
553.250000
 20
151.225821
 42
0.000000
  0
VERTEX
  8
0
 10
536.500000
 20
151.500000
 42
0.000000
  0
VERTEX
  8
0
 10
536.221780
 20
165.250000
 42
0.000000
  0
VERTEX
  8
0
 10
535.943561
 20
179.000000
 42
0.000000
  0
VERTEX
  8
0
 10
527.971780
 20
179.000000
 42
0.000000
  0
VERTEX
  8
0
 10
520.000000
 20
179.000000
 42
0.000000
  0
SEQEND
  0
POLYLINE
  8
0
 66
1
 70
1
  0
VERTEX
  8
0
 10
692.312060
 20
156.225507
 42
0.005943
  0
VERTEX
  8
0
 10
687.386287
 20
151.976201
 42
0.008815
  0
VERTEX
  8
0
 10
683.182089
 20
148.127215
 42
0.004697
  0
VERTEX
  8
0
 10
679.740604
 20
144.801168
 42
0.151853
  0
VERTEX
  8
0
 10
679.197495
 20
143.786991
 42
0.174399
  0
VERTEX
  8
0
 10
679.428271
 20
142.310758
 42
0.044769
  0
VERTEX
  8
0
 10
680.792968
 20
140.271998
 42
0.044669
  0
VERTEX
  8
0
 10
682.494335
 20
138.512608
 42
0.180132
  0
VERTEX
  8
0
 10
683.871034
 20
138.000000
 42
0.152546
  0
VERTEX
  8
0
 10
684.444067
 20
138.178993
 42
0.003858
  0
VERTEX
  8
0
 10
686.694193
 20
139.762500
 42
0.007909
  0
VERTEX
  8
0
 10
689.315093
 20
141.700733
 42
0.005270
  0
VERTEX
  8
0
 10
692.258633
 20
144.000000
 42
-0.003711
  0
VERTEX
  8
0
 10
695.183829
 20
146.299663
 42
-0.005745
  0
VERTEX
  8
0
 10
697.747099
 20
148.237500
 42
-0.002085
  0
VERTEX
  8
0
 10
699.971365
 20
149.864946
 42
-0.158175
  0
VERTEX
  8
0
 10
700.387599
 20
150.000000
 42
-0.403305
  0
VERTEX
  8
0
 10
700.636999
 20
149.759753
 42
-0.001074
  0
VERTEX
  8
0
 10
700.820107
 20
144.565625
 42
-0.005171
  0
VERTEX
  8
0
 10
700.955988
 20
138.593769
 42
-0.003102
  0
VERTEX
  8
0
 10
701.000000
 20
131.500000
 42
-0.001953
  0
VERTEX
  8
0
 10
700.956218
 20
120.292771
 42
-0.021997
  0
VERTEX
  8
0
 10
700.725980
 20
115.851978
 42
-0.066860
  0
VERTEX
  8
0
 10
700.221124
 20
113.689048
 42
-0.311520
  0
VERTEX
  8
0
 10
699.222506
 20
113.000000
 42
0.104360
  0
VERTEX
  8
0
 10
697.219381
 20
112.577304
 42
0.062904
  0
VERTEX
  8
0
 10
695.131247
 20
111.321132
 42
0.065267
  0
VERTEX
  8
0
 10
693.525195
 20
109.675504
 42
0.162118
  0
VERTEX
  8
0
 10
693.000000
 20
108.098284
 42
0.136031
  0
VERTEX
  8
0
 10
693.484503
 20
106.350385
 42
0.077993
  0
VERTEX
  8
0
 10
694.898013
 20
104.660155
 42
0.075070
  0
VERTEX
  8
0
 10
696.830493
 20
103.424794
 42
0.105117
  0
VERTEX
  8
0
 10
698.828741
 20
103.000000
 42
-0.194982
  0
VERTEX
  8
0
 10
700.050132
 20
102.504878
 42
-0.160220
  0
VERTEX
  8
0
 10
700.708358
 20
101.249122
 42
-0.038829
  0
VERTEX
  8
0
 10
700.958624
 20
98.394119
 42
-0.002454
  0
VERTEX
  8
0
 10
701.000000
 20
89.964817
 42
-0.005207
  0
VERTEX
  8
0
 10
700.929668
 20
83.211015
 42
-0.020751
  0
VERTEX
  8
0
 10
700.671754
 20
79.078032
 42
-0.034026
  0
VERTEX
  8
0
 10
700.194315
 20
76.327137
 42
-0.085248
  0
VERTEX
  8
0
 10
699.384990
 20
74.464817
 42
0.025256
  0
VERTEX
  8
0
 10
698.504556
 20
72.960564
 42
0.120335
  0
VERTEX
  8
0
 10
698.269980
 20
72.000000
 42
0.120335
  0
VERTEX
  8
0
 10
698.504556
 20
71.039436
 42
0.025256
  0
VERTEX
  8
0
 10
699.384990
 20
69.535183
 42
-0.108814
  0
VERTEX
  8
0
 10
700.265684
 20
67.218393
 42
-0.022475
  0
VERTEX
  8
0
 10
700.710824
 20
62.849968
 42
-0.012264
  0
VERTEX
  8
0
 10
700.945193
 20
55.546719
 42
-0.001888
  0
VERTEX
  8
0
 10
701.000000
 20
41.035183
 42
0.000000
  0
VERTEX
  8
0
 10
701.000000
 20
15.000000
 42
0.000000
  0
VERTEX
  8
0
 10
709.000000
 20
15.000000
 42
0.000000
  0
VERTEX
  8
0
 10
717.000000
 20
15.000000
 42
0.000000
  0
VERTEX
  8
0
 10
717.000000
 20
40.420000
 42
0.000000
  0
VERTEX
  8
0
 10
717.000000
 20
65.840000
 42
0.000000
  0
VERTEX
  8
0
 10
722.750000
 20
60.095896
 42
0.017619
  0
VERTEX
  8
0
 10
725.574723
 20
57.466231
 42
0.025780
  0
VERTEX
  8
0
 10
728.251914
 20
55.376114
 42
0.029358
  0
VERTEX
  8
0
 10
730.804149
 20
53.802106
 42
0.041560
  0
VERTEX
  8
0
 10
733.250000
 20
52.736594
 42
0.000000
  0
VERTEX
  8
0
 10
738.000000
 20
51.121396
 42
0.000000
  0
VERTEX
  8
0
 10
738.000000
 20
58.060698
 42
0.007830
  0
VERTEX
  8
0
 10
737.941065
 20
61.824003
 42
0.050744
  0
VERTEX
  8
0
 10
737.690376
 20
63.701759
 42
0.132304
  0
VERTEX
  8
0
 10
737.180323
 20
64.641648
 42
0.205448
  0
VERTEX
  8
0
 10
736.345012
 20
65.000000
 42
-0.025779
  0
VERTEX
  8
0
 10
735.394959
 20
65.049016
 42
-0.384330
  0
VERTEX
  8
0
 10
735.190025
 20
65.276247
 42
-0.177905
  0
VERTEX
  8
0
 10
735.338887
 20
65.681380
 42
-0.007828
  0
VERTEX
  8
0
 10
736.345012
 20
66.828741
 42
0.129152
  0
VERTEX
  8
0
 10
737.919528
 20
69.862860
 42
0.230246
  0
VERTEX
  8
0
 10
737.290087
 20
72.541426
 42
0.159099
  0
VERTEX
  8
0
 10
734.402902
 20
74.399500
 42
0.063416
  0
VERTEX
  8
0
 10
729.678571
 20
75.015313
 42
-0.014073
  0
VERTEX
  8
0
 10
727.603459
 20
75.079872
 42
-0.016693
  0
VERTEX
  8
0
 10
725.650805
 20
75.261264
 42
-0.015640
  0
VERTEX
  8
0
 10
724.027965
 20
75.518644
 42
-0.094546
  0
VERTEX
  8
0
 10
723.239063
 20
75.831089
 42
-0.161898
  0
VERTEX
  8
0
 10
721.438492
 20
78.038853
 42
-0.022223
  0
VERTEX
  8
0
 10
719.552025
 20
83.756124
 42
-0.025434
  0
VERTEX
  8
0
 10
718.020608
 20
90.496245
 42
-0.028320
  0
VERTEX
  8
0
 10
717.249292
 20
97.119446
 42
0.000000
  0
VERTEX
  8
0
 10
716.737477
 20
105.738892
 42
0.000000
  0
VERTEX
  8
0
 10
723.400033
 20
106.452391
 42
0.012651
  0
VERTEX
  8
0
 10
726.946814
 20
106.923252
 42
0.050082
  0
VERTEX
  8
0
 10
729.071538
 20
107.482487
 42
0.080355
  0
VERTEX
  8
0
 10
730.493568
 20
108.292562
 42
0.078304
  0
VERTEX
  8
0
 10
731.602367
 20
109.515888
 42
0.034944
  0
VERTEX
  8
0
 10
732.323061
 20
110.803773
 42
0.089693
  0
VERTEX
  8
0
 10
732.597930
 20
111.831192
 42
0.097470
  0
VERTEX
  8
0
 10
732.484951
 20
112.837313
 42
0.046345
  0
VERTEX
  8
0
 10
731.976756
 20
114.043432
 42
0.083133
  0
VERTEX
  8
0
 10
731.075918
 20
115.210686
 42
0.130262
  0
VERTEX
  8
0
 10
729.962627
 20
115.802452
 42
0.064412
  0
VERTEX
  8
0
 10
728.161203
 20
115.984752
 42
0.008950
  0
VERTEX
  8
0
 10
724.402537
 20
115.812897
 42
-0.005216
  0
VERTEX
  8
0
 10
720.384908
 20
115.599128
 42
-0.079616
  0
VERTEX
  8
0
 10
719.007140
 20
115.759910
 42
-0.297457
  0
VERTEX
  8
0
 10
718.511281
 20
116.328150
 42
-0.106422
  0
VERTEX
  8
0
 10
718.593282
 20
117.452407
 42
-0.045989
  0
VERTEX
  8
0
 10
721.326968
 20
124.361398
 42
-0.047514
  0
VERTEX
  8
0
 10
725.253387
 20
130.573794
 42
-0.051528
  0
VERTEX
  8
0
 10
729.865780
 20
135.411496
 42
-0.090066
  0
VERTEX
  8
0
 10
734.638214
 20
138.186139
 42
0.037426
  0
VERTEX
  8
0
 10
736.688810
 20
139.106291
 42
0.166217
  0
VERTEX
  8
0
 10
737.571404
 20
140.063693
 42
0.095905
  0
VERTEX
  8
0
 10
737.931482
 20
141.643358
 42
0.008223
  0
VERTEX
  8
0
 10
738.000000
 20
145.809296
 42
0.000000
  0
VERTEX
  8
0
 10
738.000000
 20
152.216816
 42
0.000000
  0
VERTEX
  8
0
 10
735.250000
 20
151.537614
 42
0.064394
  0
VERTEX
  8
0
 10
731.546488
 20
150.097976
 42
0.029659
  0
VERTEX
  8
0
 10
727.151652
 20
147.350850
 42
0.029565
  0
VERTEX
  8
0
 10
723.001821
 20
144.015106
 42
0.050171
  0
VERTEX
  8
0
 10
720.018647
 20
140.710718
 42
0.000000
  0
VERTEX
  8
0
 10
717.000000
 20
136.605995
 42
0.000000
  0
VERTEX
  8
0
 10
717.000000
 20
143.802997
 42
0.000000
  0
VERTEX
  8
0
 10
717.000000
 20
151.000000
 42
0.000000
  0
VERTEX
  8
0
 10
708.865377
 20
151.000000
 42
0.000000
  0
VERTEX
  8
0
 10
700.730755
 20
151.000000
 42
0.000000
  0
VERTEX
  8
0
 10
705.850191
 20
155.164472
 42
0.020618
  0
VERTEX
  8
0
 10
709.406610
 20
158.309756
 42
0.080145
  0
VERTEX
  8
0
 10
711.169468
 20
160.650520
 42
0.134541
  0
VERTEX
  8
0
 10
711.634129
 20
162.747467
 42
0.110949
  0
VERTEX
  8
0
 10
711.020215
 20
164.962227
 42
0.217030
  0
VERTEX
  8
0
 10
708.852782
 20
166.616661
 42
0.166883
  0
VERTEX
  8
0
 10
705.857226
 20
166.297385
 42
0.057307
  0
VERTEX
  8
0
 10
701.086843
 20
163.363500
 42
0.008509
  0
SEQEND
  0
POLYLINE
  8
0
 66
1
 70
1
  0
VERTEX
  8
0
 10
168.718678
 20
152.834289
 42
0.062837
  0
VERTEX
  8
0
 10
158.977014
 20
150.607395
 42
0.062919
  0
VERTEX
  8
0
 10
150.098445
 20
146.031126
 42
0.062895
  0
VERTEX
  8
0
 10
142.634145
 20
139.388600
 42
0.062703
  0
VERTEX
  8
0
 10
137.046683
 20
131.092479
 42
0.032265
  0
VERTEX
  8
0
 10
134.288051
 20
124.621357
 42
0.033672
  0
VERTEX
  8
0
 10
132.430654
 20
117.939826
 42
0.030723
  0
VERTEX
  8
0
 10
131.370678
 20
110.546533
 42
0.019897
  0
VERTEX
  8
0
 10
131.014781
 20
101.909963
 42
0.060088
  0
VERTEX
  8
0
 10
133.360327
 20
82.231793
 42
0.096458
  0
VERTEX
  8
0
 10
140.399451
 20
66.923278
 42
0.107147
  0
VERTEX
  8
0
 10
152.021667
 20
56.438189
 42
0.088724
  0
VERTEX
  8
0
 10
167.750195
 20
50.811685
 42
0.041475
  0
VERTEX
  8
0
 10
175.039875
 20
50.200459
 42
0.033155
  0
VERTEX
  8
0
 10
182.908898
 20
50.716901
 42
0.033587
  0
VERTEX
  8
0
 10
190.505544
 20
52.248666
 42
0.047259
  0
VERTEX
  8
0
 10
196.969407
 20
54.685858
 42
0.087127
  0
VERTEX
  8
0
 10
207.042085
 20
62.011938
 42
0.074838
  0
VERTEX
  8
0
 10
214.650792
 20
72.697820
 42
0.067124
  0
VERTEX
  8
0
 10
219.375579
 20
86.256410
 42
0.050359
  0
VERTEX
  8
0
 10
220.965273
 20
102.000000
 42
0.034497
  0
VERTEX
  8
0
 10
220.155638
 20
113.720934
 42
0.047343
  0
VERTEX
  8
0
 10
217.721536
 20
123.998690
 42
0.051719
  0
VERTEX
  8
0
 10
213.633372
 20
132.900776
 42
0.055977
  0
VERTEX
  8
0
 10
207.893572
 20
140.519015
 42
0.061623
  0
VERTEX
  8
0
 10
200.111309
 20
146.944327
 42
0.065720
  0
VERTEX
  8
0
 10
191.159623
 20
151.113161
 42
0.060275
  0
VERTEX
  8
0
 10
180.773685
 20
153.047974
 42
0.040773
  0
SEQEND
  0
POLYLINE
  8
0
 66
1
 70
1
  0
VERTEX
  8
0
 10
183.386157
 20
138.584298
 42
-0.076329
  0
VERTEX
  8
0
 10
190.025116
 20
135.420633
 42
-0.074453
  0
VERTEX
  8
0
 10
195.473534
 20
130.388581
 42
-0.067013
  0
VERTEX
  8
0
 10
199.635615
 20
123.486658
 42
-0.046328
  0
VERTEX
  8
0
 10
202.475739
 20
114.806853
 42
-0.067299
  0
VERTEX
  8
0
 10
203.929358
 20
98.562126
 42
-0.077101
  0
VERTEX
  8
0
 10
200.849798
 20
83.295613
 42
-0.089385
  0
VERTEX
  8
0
 10
193.914080
 20
71.491883
 42
-0.143514
  0
VERTEX
  8
0
 10
184.193157
 20
65.176017
 42
-0.090150
  0
VERTEX
  8
0
 10
173.579157
 20
63.989957
 42
-0.106789
  0
VERTEX
  8
0
 10
163.900814
 20
66.786648
 42
-0.102759
  0
VERTEX
  8
0
 10
155.971472
 20
73.450178
 42
-0.078071
  0
VERTEX
  8
0
 10
150.401853
 20
83.377064
 42
-0.069188
  0
VERTEX
  8
0
 10
148.745007
 20
90.880740
 42
-0.022423
  0
VERTEX
  8
0
 10
148.354014
 20
102.267738
 42
-0.022404
  0
VERTEX
  8
0
 10
148.983675
 20
113.638901
 42
-0.069665
  0
VERTEX
  8
0
 10
150.798349
 20
121.079347
 42
-0.075772
  0
VERTEX
  8
0
 10
156.359420
 20
130.579646
 42
-0.099583
  0
VERTEX
  8
0
 10
164.080846
 20
136.971204
 42
-0.104804
  0
VERTEX
  8
0
 10
173.350811
 20
139.677895
 42
-0.092153
  0
SEQEND
  0
POLYLINE
  8
0
 66
1
 70
1
  0
VERTEX
  8
0
 10
289.910468
 20
152.848161
 42
0.045097
  0
VERTEX
  8
0
 10
283.709773
 20
151.663798
 42
0.047023
  0
VERTEX
  8
0
 10
277.912682
 20
149.396355
 42
0.046430
  0
VERTEX
  8
0
 10
272.577849
 20
146.054576
 42
0.041915
  0
VERTEX
  8
0
 10
267.750000
 20
141.679982
 42
0.000000
  0
VERTEX
  8
0
 10
263.000000
 20
136.589706
 42
0.000000
  0
VERTEX
  8
0
 10
263.000000
 20
143.794853
 42
0.000000
  0
VERTEX
  8
0
 10
263.000000
 20
151.000000
 42
0.000000
  0
VERTEX
  8
0
 10
255.000000
 20
151.000000
 42
0.000000
  0
VERTEX
  8
0
 10
247.000000
 20
151.000000
 42
0.000000
  0
VERTEX
  8
0
 10
247.000000
 20
102.000000
 42
0.000000
  0
VERTEX
  8
0
 10
247.000000
 20
53.000000
 42
0.000000
  0
VERTEX
  8
0
 10
254.885704
 20
53.000000
 42
0.000000
  0
VERTEX
  8
0
 10
262.771409
 20
53.000000
 42
0.000000
  0
VERTEX
  8
0
 10
263.252600
 20
83.750000
 42
-0.003958
  0
VERTEX
  8
0
 10
263.775880
 20
105.954118
 42
-0.030558
  0
VERTEX
  8
0
 10
264.736372
 20
116.299866
 42
-0.064169
  0
VERTEX
  8
0
 10
266.678441
 20
123.007301
 42
-0.060474
  0
VERTEX
  8
0
 10
270.284866
 20
129.151269
 42
-0.092018
  0
VERTEX
  8
0
 10
276.100158
 20
134.415280
 42
-0.069704
  0
VERTEX
  8
0
 10
283.999677
 20
137.876677
 42
-0.068666
  0
VERTEX
  8
0
 10
292.673228
 20
139.069613
 42
-0.083517
  0
VERTEX
  8
0
 10
300.750000
 20
137.707408
 42
0.000000
  0
VERTEX
  8
0
 10
305.000000
 20
136.233932
 42
0.000000
  0
VERTEX
  8
0
 10
305.000000
 20
144.516272
 42
0.000000
  0
VERTEX
  8
0
 10
305.000000
 20
152.798613
 42
0.000000
  0
VERTEX
  8
0
 10
300.750000
 20
153.149306
 42
0.019595
  0
VERTEX
  8
0
 10
298.662164
 20
153.239440
 42
0.007933
  0
VERTEX
  8
0
 10
295.812762
 20
153.205506
 42
0.007836
  0
VERTEX
  8
0
 10
292.744653
 20
153.072125
 42
0.009871
  0
SEQEND
  0
POLYLINE
  8
0
 66
1
 70
1
  0
VERTEX
  8
0
 10
449.527210
 20
152.784844
 42
0.054189
  0
VERTEX
  8
0
 10
439.540509
 20
150.765269
 42
0.073314
  0
VERTEX
  8
0
 10
431.276236
 20
146.730541
 42
0.081448
  0
VERTEX
  8
0
 10
425.166909
 20
140.888042
 42
0.089046
  0
VERTEX
  8
0
 10
421.471276
 20
133.568499
 42
0.052797
  0
VERTEX
  8
0
 10
420.119105
 20
126.320594
 42
0.063803
  0
VERTEX
  8
0
 10
420.454341
 20
119.412297
 42
0.067259
  0
VERTEX
  8
0
 10
422.474243
 20
113.111726
 42
0.069419
  0
VERTEX
  8
0
 10
426.078951
 20
107.647647
 42
0.056963
  0
VERTEX
  8
0
 10
430.067415
 20
104.040733
 42
0.051155
  0
VERTEX
  8
0
 10
434.908490
 20
101.274173
 42
0.033100
  0
VERTEX
  8
0
 10
441.877215
 20
98.724182
 42
0.008946
  0
VERTEX
  8
0
 10
453.225798
 20
95.623420
 42
-0.009892
  0
VERTEX
  8
0
 10
464.120490
 20
92.624511
 42
-0.041008
  0
VERTEX
  8
0
 10
470.476340
 20
90.156648
 42
-0.071736
  0
VERTEX
  8
0
 10
474.349141
 20
87.532281
 42
-0.109491
  0
VERTEX
  8
0
 10
476.678576
 20
84.226849
 42
-0.100526
  0
VERTEX
  8
0
 10
477.819179
 20
78.464088
 42
-0.116901
  0
VERTEX
  8
0
 10
476.506393
 20
73.046155
 42
-0.110652
  0
VERTEX
  8
0
 10
472.813393
 20
68.579572
 42
-0.082969
  0
VERTEX
  8
0
 10
467.177803
 20
65.544916
 42
-0.073612
  0
VERTEX
  8
0
 10
458.520921
 20
63.956768
 42
-0.036791
  0
VERTEX
  8
0
 10
447.369773
 20
64.392665
 42
-0.035239
  0
VERTEX
  8
0
 10
435.550448
 20
66.580885
 42
-0.040874
  0
VERTEX
  8
0
 10
424.750000
 20
70.343371
 42
0.000000
  0
VERTEX
  8
0
 10
419.000000
 20
72.889942
 42
0.000000
  0
VERTEX
  8
0
 10
419.000000
 20
64.554521
 42
0.000000
  0
VERTEX
  8
0
 10
419.000000
 20
56.219100
 42
0.000000
  0
VERTEX
  8
0
 10
426.750000
 20
54.134569
 42
0.020974
  0
VERTEX
  8
0
 10
438.139162
 20
51.578019
 42
0.028375
  0
VERTEX
  8
0
 10
448.608708
 20
50.292921
 42
0.031136
  0
VERTEX
  8
0
 10
458.291071
 20
50.262442
 42
0.037441
  0
VERTEX
  8
0
 10
467.311768
 20
51.478058
 42
0.058655
  0
VERTEX
  8
0
 10
478.931957
 20
55.406072
 42
0.092776
  0
VERTEX
  8
0
 10
487.415285
 20
61.567665
 42
0.103125
  0
VERTEX
  8
0
 10
492.516336
 20
69.849003
 42
0.087842
  0
VERTEX
  8
0
 10
494.268598
 20
79.976664
 42
0.087545
  0
VERTEX
  8
0
 10
492.362733
 20
90.536701
 42
0.121285
  0
VERTEX
  8
0
 10
486.994608
 20
98.475041
 42
0.092141
  0
VERTEX
  8
0
 10
477.290443
 20
104.438750
 42
0.034833
  0
VERTEX
  8
0
 10
462.010060
 20
109.126200
 42
-0.009016
  0
VERTEX
  8
0
 10
452.405571
 20
111.538172
 42
-0.025699
  0
VERTEX
  8
0
 10
445.853819
 20
113.676390
 42
-0.037146
  0
VERTEX
  8
0
 10
441.353710
 20
115.801026
 42
-0.089218
  0
VERTEX
  8
0
 10
438.528181
 20
118.148878
 42
-0.086093
  0
VERTEX
  8
0
 10
436.810550
 20
121.095633
 42
-0.070023
  0
VERTEX
  8
0
 10
436.025640
 20
124.670027
 42
-0.067751
  0
VERTEX
  8
0
 10
436.248013
 20
128.437670
 42
-0.070868
  0
VERTEX
  8
0
 10
437.472721
 20
131.947248
 42
-0.193323
  0
VERTEX
  8
0
 10
443.590560
 20
137.222885
 42
-0.062873
  0
VERTEX
  8
0
 10
455.500491
 20
139.687991
 42
-0.056193
  0
VERTEX
  8
0
 10
469.742800
 20
139.207101
 42
-0.059305
  0
VERTEX
  8
0
 10
483.250000
 20
135.548873
 42
0.000000
  0
VERTEX
  8
0
 10
489.000000
 20
133.232483
 42
0.000000
  0
VERTEX
  8
0
 10
489.000000
 20
141.044263
 42
0.000000
  0
VERTEX
  8
0
 10
489.000000
 20
148.856043
 42
0.000000
  0
VERTEX
  8
0
 10
479.750000
 20
150.892193
 42
0.016647
  0
VERTEX
  8
0
 10
471.936800
 20
152.341239
 42
0.021890
  0
VERTEX
  8
0
 10
464.727027
 20
153.110640
 42
0.021873
  0
VERTEX
  8
0
 10
457.473304
 20
153.247038
 42
0.016583
  0
SEQEND
  0
POLYLINE
  8
0
 66
1
 70
1
  0
VERTEX
  8
0
 10
622.364785
 20
152.798849
 42
0.075812
  0
VERTEX
  8
0
 10
610.110439
 20
149.640354
 42
0.080870
  0
VERTEX
  8
0
 10
599.654512
 20
143.012289
 42
0.078603
  0
VERTEX
  8
0
 10
591.618285
 20
133.226582
 42
0.066454
  0
VERTEX
  8
0
 10
586.423220
 20
120.868576
 42
0.023782
  0
VERTEX
  8
0
 10
585.823545
 20
118.157437
 42
0.008774
  0
VERTEX
  8
0
 10
585.228263
 20
114.286394
 42
0.008673
  0
VERTEX
  8
0
 10
584.725082
 20
110.030732
 42
0.010320
  0
VERTEX
  8
0
 10
584.403126
 20
106.000000
 42
0.040303
  0
VERTEX
  8
0
 10
584.685778
 20
92.853155
 42
0.049702
  0
VERTEX
  8
0
 10
587.137097
 20
80.845577
 42
0.054113
  0
VERTEX
  8
0
 10
591.642492
 20
70.446103
 42
0.067214
  0
VERTEX
  8
0
 10
598.026481
 20
62.068757
 42
0.040271
  0
VERTEX
  8
0
 10
603.021367
 20
57.819620
 42
0.045031
  0
VERTEX
  8
0
 10
608.457188
 20
54.602486
 42
0.043063
  0
VERTEX
  8
0
 10
614.591862
 20
52.305119
 42
0.031890
  0
VERTEX
  8
0
 10
621.681303
 20
50.805240
 42
0.083864
  0
VERTEX
  8
0
 10
639.531070
 20
51.208788
 42
0.102767
  0
VERTEX
  8
0
 10
654.900061
 20
57.611906
 42
0.103884
  0
VERTEX
  8
0
 10
666.330248
 20
69.537299
 42
0.087393
  0
VERTEX
  8
0
 10
672.878888
 20
85.799221
 42
0.040207
  0
VERTEX
  8
0
 10
673.790986
 20
92.879458
 42
0.014971
  0
VERTEX
  8
0
 10
673.969777
 20
102.918201
 42
0.014777
  0
VERTEX
  8
0
 10
673.554685
 20
112.870650
 42
0.045060
  0
VERTEX
  8
0
 10
672.469551
 20
119.539901
 42
0.079165
  0
VERTEX
  8
0
 10
665.698701
 20
135.145929
 42
0.104740
  0
VERTEX
  8
0
 10
654.875969
 20
146.172465
 42
0.101557
  0
VERTEX
  8
0
 10
640.234479
 20
152.081460
 42
0.070639
  0
SEQEND
  0
POLYLINE
  8
0
 66
1
 70
1
  0
VERTEX
  8
0
 10
640.856986
 20
137.072960
 42
-0.070217
  0
VERTEX
  8
0
 10
645.918958
 20
133.520348
 42
-0.054984
  0
VERTEX
  8
0
 10
650.291703
 20
128.420459
 42
-0.051039
  0
VERTEX
  8
0
 10
653.728548
 20
122.083326
 42
-0.044118
  0
VERTEX
  8
0
 10
656.014851
 20
114.865773
 42
-0.047605
  0
VERTEX
  8
0
 10
656.892117
 20
107.795781
 42
-0.019810
  0
VERTEX
  8
0
 10
656.783321
 20
98.169061
 42
-0.019194
  0
VERTEX
  8
0
 10
655.943145
 20
88.785488
 42
-0.064309
  0
VERTEX
  8
0
 10
654.382048
 20
82.824271
 42
-0.073967
  0
VERTEX
  8
0
 10
648.619109
 20
73.038613
 42
-0.102092
  0
VERTEX
  8
0
 10
640.761103
 20
66.587095
 42
-0.106834
  0
VERTEX
  8
0
 10
631.277363
 20
63.951327
 42
-0.087553
  0
VERTEX
  8
0
 10
620.806843
 20
65.176017
 42
-0.072344
  0
VERTEX
  8
0
 10
616.565007
 20
67.149893
 42
-0.043843
  0
VERTEX
  8
0
 10
612.208670
 20
70.584230
 42
-0.042390
  0
VERTEX
  8
0
 10
608.329404
 20
74.911702
 42
-0.051102
  0
VERTEX
  8
0
 10
605.504722
 20
79.581601
 42
-0.083797
  0
VERTEX
  8
0
 10
601.599503
 20
93.439950
 42
-0.060236
  0
VERTEX
  8
0
 10
601.806637
 20
109.549413
 42
-0.062683
  0
VERTEX
  8
0
 10
605.705181
 20
124.300264
 42
-0.124502
  0
VERTEX
  8
0
 10
612.795138
 20
133.997473
 42
-0.079901
  0
VERTEX
  8
0
 10
618.965288
 20
137.631637
 42
-0.066011
  0
VERTEX
  8
0
 10
626.385378
 20
139.455256
 42
-0.065962
  0
VERTEX
  8
0
 10
634.029878
 20
139.282668
 42
-0.079526
  0
SEQEND
  0
ENDSEC
  0
EOF
